PathFileType	4	(X/Y/Z)	C:/Users/opensim2020/Desktop/walking_exp_matlab/subject03_walking04_straight_03.trc	
DataRate	CameraRate	NumFrames	NumMarkers	Units	OrigDataRate	OrigDataStartFrame	OrigNumFrames	
100.00	100.00	5	51	mm	100.00	2277	256	
Frame#	Time	LFHD			RFHD			LBHD			RBHD			C7			T10			CLAV			STRN			RBAK			LSHO			LUPA			LELB			LFRM			LWRA			LWRB			LFIN			RSHO			RUPA			RELB			RFRM			RWRA			RWRB			RFIN			LASI			RASI			LPSI			RPSI			LTHI			LKNE			LTIB			LANK			LHEE			LTOE			RTHI			RKNE			RTIB			RANK			RHEE			RTOE			*39			*40			*41			*42			*43			*44			*45			*46			*47			*48			*49			*50			
		X1	Y1	Z1	X2	Y2	Z2	X3	Y3	Z3	X4	Y4	Z4	X5	Y5	Z5	X6	Y6	Z6	X7	Y7	Z7	X8	Y8	Z8	X9	Y9	Z9	X10	Y10	Z10	X11	Y11	Z11	X12	Y12	Z12	X13	Y13	Z13	X14	Y14	Z14	X15	Y15	Z15	X16	Y16	Z16	X17	Y17	Z17	X18	Y18	Z18	X19	Y19	Z19	X20	Y20	Z20	X21	Y21	Z21	X22	Y22	Z22	X23	Y23	Z23	X24	Y24	Z24	X25	Y25	Z25	X26	Y26	Z26	X27	Y27	Z27	X28	Y28	Z28	X29	Y29	Z29	X30	Y30	Z30	X31	Y31	Z31	X32	Y32	Z32	X33	Y33	Z33	X34	Y34	Z34	X35	Y35	Z35	X36	Y36	Z36	X37	Y37	Z37	X38	Y38	Z38	X39	Y39	Z39	X40	Y40	Z40	X41	Y41	Z41	X42	Y42	Z42	X43	Y43	Z43	X44	Y44	Z44	X45	Y45	Z45	X46	Y46	Z46	X47	Y47	Z47	X48	Y48	Z48	X49	Y49	Z49	X50	Y50	Z50	X51	Y51	Z51	

33	0.320	-1217.74097	-881.15137	1620.46924	-1085.27454	-901.33765	1617.96924	-1234.89709	-1000.41962	1558.97681	-1103.89087	-1016.54974	1556.74939	-1181.14465	-1028.87231	1410.41394	-1188.89343	-1072.09009	1099.49500	-1173.94958	-908.44159	1331.22339	-1185.23596	-868.69965	1165.12231	-1094.63062	-1092.99866	1235.27759	-1331.08948	-942.04016	1375.95435	-1401.30383	-931.62134	1181.77234	-1408.70520	-904.71698	1060.95203	-1401.23999	-844.64758	945.38043	-1363.51404	-789.81525	842.66357	-1412.51501	-815.51410	835.03564	-1398.37280	-769.90485	765.58911	-1016.95276	-963.62506	1350.33569	-957.03528	-977.28888	1124.03687	-948.69379	-968.92047	1010.75812	-947.12616	-972.21832	873.63947	-983.33063	-958.34192	773.95459	-937.08429	-987.28070	774.46680	-950.87494	-982.11536	698.87842	-1304.67200	-909.44818	925.05487	-1066.84314	-904.28839	935.47931	-1251.06213	-1069.58008	955.89545	-1102.83459	-1066.46960	965.90948	-1348.31616	-1013.95380	629.82892	-1326.23022	-1049.77686	452.49481	-1316.90295	-1199.77197	313.33060	-1271.02112	-1327.24951	150.87614	-1230.64160	-1371.72131	151.26147	-1243.73022	-1240.74719	24.10126	-1030.74756	-921.90759	641.42865	-1074.32898	-874.69824	468.90094	-1073.66687	-885.43561	278.65778	-1127.52686	-867.74927	64.79100	-1181.08618	-908.96606	32.82806	-1141.51819	-724.16913	31.96984																																				 
34	0.330	-1217.40491	-872.37250	1622.03931	-1084.88953	-892.25848	1619.18445	-1234.51831	-991.94507	1561.18396	-1103.45276	-1007.90479	1558.65063	-1180.57166	-1020.25153	1411.43213	-1188.02966	-1062.05151	1100.57458	-1173.84937	-899.33118	1333.00720	-1185.29456	-858.75720	1167.02783	-1093.31714	-1082.87781	1236.71362	-1330.53223	-933.62451	1377.91760	-1401.14966	-923.66595	1183.84583	-1408.57739	-898.51215	1062.43591	-1402.02588	-840.47394	945.97754	-1365.19653	-787.49536	841.73035	-1414.21069	-813.59460	835.03625	-1400.20007	-769.89667	763.95367	-1016.67224	-953.74799	1352.53833	-956.16931	-965.86682	1126.32629	-947.72168	-956.68182	1013.18610	-945.80505	-959.19763	876.05591	-981.81311	-945.16028	776.28381	-935.38678	-973.75586	776.80450	-949.32867	-968.36163	701.10040	-1303.58765	-899.16974	926.66644	-1065.94836	-894.36462	937.17493	-1250.33057	-1059.13318	957.48346	-1102.13281	-1056.00647	967.68610	-1349.40576	-999.93036	629.76996	-1328.09692	-1032.80957	450.86807	-1318.67065	-1184.17163	315.33926	-1272.72424	-1315.38550	156.66862	-1230.75928	-1358.97668	160.68047	-1243.32581	-1238.96838	24.46566	-1031.28784	-915.18951	642.34875	-1073.26379	-870.07751	469.11130	-1072.95581	-882.25171	278.92209	-1127.43640	-867.59277	64.77533	-1180.88843	-908.98810	32.87142	-1141.58215	-724.04883	31.83059																																				 
35	0.340	-1217.11267	-863.63239	1623.29321	-1084.20068	-883.29669	1620.33484	-1234.16443	-983.56036	1563.18848	-1103.09619	-999.10480	1560.13831	-1180.06641	-1011.59705	1412.32019	-1186.96362	-1052.33521	1101.61780	-1173.79077	-890.22760	1334.49634	-1184.87195	-849.05627	1168.66882	-1091.85132	-1072.70715	1237.95190	-1329.71887	-925.12805	1379.30005	-1400.94421	-915.75623	1185.54102	-1408.71252	-892.13245	1063.77246	-1403.03528	-836.16718	946.27429	-1367.03186	-785.11389	840.54169	-1416.09912	-811.52264	834.84229	-1402.14636	-769.97284	762.06897	-1016.56573	-943.74615	1354.45874	-955.03882	-954.59595	1128.48767	-946.37689	-944.66864	1015.41382	-944.35242	-945.88232	878.25555	-980.35870	-931.25177	778.45697	-933.68604	-959.60376	778.94861	-947.52338	-954.05670	703.02191	-1302.48962	-889.16193	928.04700	-1065.12122	-884.11444	938.34039	-1249.37305	-1048.85815	958.78845	-1101.21875	-1045.50281	969.16223	-1350.44031	-985.66803	629.44617	-1330.58618	-1013.86542	450.47821	-1320.12708	-1167.67273	316.87125	-1274.60779	-1303.73584	160.88791	-1233.51575	-1345.79260	170.03773	-1243.56750	-1237.01733	25.06098	-1030.66125	-908.38556	643.02203	-1072.47083	-865.41620	468.94547	-1072.74731	-879.33893	279.07562	-1127.78027	-867.56409	64.85530	-1180.93896	-908.99432	32.88962	-1141.76038	-723.90845	31.72131	-1182.34937	-956.79736	1672.46631																																	 
36	0.350	-1216.84045	-854.99707	1624.23206	-1084.00623	-874.26727	1620.93884	-1233.93506	-975.24719	1564.90076	-1102.83215	-990.49359	1561.50378	-1179.53076	-1002.86798	1412.90247	-1185.59631	-1042.67773	1102.12659	-1173.76746	-881.22180	1335.61951	-1184.60608	-839.42749	1170.02734	-1090.25122	-1062.57971	1238.92334	-1329.14258	-916.83630	1380.43298	-1400.82190	-907.79492	1186.76697	-1408.99426	-885.69006	1064.85828	-1404.29883	-831.69543	946.34686	-1369.12854	-782.60449	839.25580	-1418.14404	-809.31171	834.42993	-1404.22913	-770.05646	759.93073	-1016.50446	-933.78259	1356.05713	-953.75299	-943.40942	1130.34314	-944.83820	-932.68945	1017.34216	-942.78302	-932.44501	880.27203	-978.89899	-916.79413	780.48724	-931.98944	-945.08417	780.78406	-945.58807	-939.36615	704.91071	-1301.39270	-879.47272	929.06586	-1064.52673	-874.39459	938.77179	-1248.40430	-1039.29639	959.89801	-1100.12097	-1035.17590	970.32422	-1351.16260	-971.46216	628.72937	-1332.08289	-995.26611	449.18103	-1321.79736	-1150.10132	318.19418	-1276.21545	-1290.92883	164.56213	-1236.63330	-1331.98450	179.30685	-1244.03442	-1232.70288	27.74190	-1030.38049	-902.20355	643.37201	-1071.94763	-860.63422	468.53860	-1072.65002	-876.65826	279.01495	-1128.08276	-867.57062	64.90035	-1181.12317	-909.00415	32.86733	-1141.98950	-723.74854	31.60327																																				 
37	0.360	-1216.71021	-846.41010	1625.01038	-1083.83960	-865.42926	1621.45093	-1233.70593	-966.96088	1566.24060	-1102.57764	-981.99725	1562.55774	-1179.03125	-994.23975	1413.19568	-1184.17468	-1033.11719	1102.43127	-1173.81628	-872.27026	1336.50854	-1184.78137	-829.85583	1171.01575	-1088.62390	-1052.59595	1239.52625	-1328.92249	-908.65894	1381.21790	-1400.73901	-899.89203	1187.50793	-1409.39380	-879.14063	1065.53577	-1405.57043	-827.18091	946.00458	-1371.30981	-780.06592	837.49823	-1420.30884	-806.92505	833.72900	-1406.48779	-770.19604	757.56995	-1016.38495	-923.91486	1357.27087	-952.35577	-932.20306	1131.89563	-943.08936	-920.80768	1018.98413	-941.27252	-918.87079	881.83276	-977.15234	-902.42480	782.38123	-930.23645	-930.07263	782.35712	-944.08307	-923.97070	706.47339	-1301.04419	-870.55768	929.82202	-1063.95935	-864.58691	938.73877	-1247.31165	-1030.28320	960.70813	-1098.88977	-1025.13159	971.14557	-1351.72180	-957.15088	627.92798	-1334.21704	-975.18005	448.89029	-1323.79614	-1132.11938	319.20676	-1278.39282	-1276.75281	170.00581	-1239.07166	-1317.41455	187.68486	-1245.74683	-1225.11890	31.80240	-1029.10303	-895.13708	643.62933	-1071.45593	-855.93866	468.02615	-1072.46118	-874.20660	278.97711	-1128.29956	-867.50549	64.87592	-1181.29041	-908.96936	32.89083	-1142.19727	-723.56128	31.46450																																				 
